<svg xmlns="http://www.w3.org/2000/svg" width="50" height="50" viewBox="0 0 50 50">
  <g id="ico_eBook" transform="translate(-275 -879)">
    <rect id="area" width="50" height="50" transform="translate(275 879)" fill="rgba(255,0,0,0.2)" opacity="0"/>
    <g id="circle" transform="translate(280 884)" fill="#fff" stroke="#333" stroke-width="1">
      <circle cx="20" cy="20" r="20" stroke="none"/>
      <circle cx="20" cy="20" r="19.5" fill="none"/>
    </g>
    <path id="path_1" data-name="path 1" d="M221.855,478.655h-9.09A1.761,1.761,0,0,1,211,476.894V462.416a1.761,1.761,0,0,1,1.761-1.761h9.09a1.761,1.761,0,0,1,1.761,1.761v14.478" transform="translate(82.996 429.074)" fill="none" stroke="#4d5156" stroke-miterlimit="10" stroke-width="1.5"/>
    <line id="line_1" data-name="line 1" x2="7.414" transform="translate(296.621 893.236)" fill="none" stroke="#4d5156" stroke-miterlimit="10" stroke-width="1.5"/>
    <line id="line_2" data-name="line 2" x2="7.414" transform="translate(296.621 895.948)" fill="none" stroke="#4d5156" stroke-miterlimit="10" stroke-width="1.5"/>
    <line id="line_3" data-name="line 3" x2="4.912" transform="translate(296.621 898.659)" fill="none" stroke="#4d5156" stroke-miterlimit="10" stroke-width="1.5"/>
    <path id="path_2" d="M222.752,498.2c0-1.061.808-1.3,2.077-1.3,1.235,0,2.077.24,2.077,1.3s-.842,1.3-2.077,1.3c-1.269,0-2.077-.24-2.077-1.3" transform="translate(75.478 405.877)" fill="#0080ff"/>
    <path id="path_3" data-name="path_3" d="M-8.868-.256A2.078,2.078,0,0,1-10.428-.8a2.138,2.138,0,0,1-.528-1.552v-.1A2.107,2.107,0,0,1-10.42-4a1.889,1.889,0,0,1,1.408-.544,1.67,1.67,0,0,1,1.356.512A2.336,2.336,0,0,1-7.228-2.5v.384H-9.884a1.144,1.144,0,0,0,.36.82,1.408,1.408,0,0,0,.9.244,3.157,3.157,0,0,0,1.256-.272V-.64A2.65,2.65,0,0,1-8.868-.256ZM-9.036-3.8a.79.79,0,0,0-.568.232,1.162,1.162,0,0,0-.28.768H-8.26a1.21,1.21,0,0,0-.192-.768A.714.714,0,0,0-9.036-3.8ZM-6.412-.328V-5.816h2.056q1.832,0,1.832,1.384a1.179,1.179,0,0,1-.912,1.208V-3.2A1.206,1.206,0,0,1-2.3-1.9,1.444,1.444,0,0,1-2.788-.76a2.125,2.125,0,0,1-1.448.432Zm1.128-.808h.848q.968,0,.968-.848,0-.808-1.008-.808h-.808Zm0-2.36h.7q.928,0,.928-.768a.693.693,0,0,0-.22-.58,1.092,1.092,0,0,0-.676-.172h-.736ZM.228-.256A1.956,1.956,0,0,1-1.256-.8a2.13,2.13,0,0,1-.516-1.532V-2.44A2.115,2.115,0,0,1-1.22-3.992a1.953,1.953,0,0,1,1.456-.56,1.959,1.959,0,0,1,1.48.54,2.131,2.131,0,0,1,.52,1.54v.112A2.1,2.1,0,0,1,1.684-.808,1.968,1.968,0,0,1,.228-.256Zm.016-.768q.912,0,.912-1.256v-.192A1.581,1.581,0,0,0,.908-3.488.86.86,0,0,0,.22-3.776q-.912,0-.912,1.272v.176A1.583,1.583,0,0,0-.444-1.316.854.854,0,0,0,.244-1.024Zm4.5.768A1.956,1.956,0,0,1,3.256-.8,2.13,2.13,0,0,1,2.74-2.328V-2.44a2.115,2.115,0,0,1,.552-1.552,1.953,1.953,0,0,1,1.456-.56,1.959,1.959,0,0,1,1.48.54,2.131,2.131,0,0,1,.52,1.54v.112A2.1,2.1,0,0,1,6.2-.808,1.968,1.968,0,0,1,4.74-.256Zm.016-.768q.912,0,.912-1.256v-.192A1.581,1.581,0,0,0,5.42-3.488a.86.86,0,0,0-.688-.288q-.912,0-.912,1.272v.176a1.583,1.583,0,0,0,.248,1.012A.854.854,0,0,0,4.756-1.024Zm2.7.7V-6.176H8.516V-.328Zm2.5,0Q8.964-1.792,8.532-2.472,8.86-2.96,9.924-4.464H11L9.62-2.544q.392.592,1.472,2.216Z" transform="translate(300 917)" fill="#4d5156"/>
  </g>
</svg>
