<svg width="350" height="59" viewBox="0 0 350 59" fill="none" xmlns="http://www.w3.org/2000/svg">
<path d="M38.92 4.48C38.8133 7.36 38.76 10.64 38.76 14.32C38.76 18 38.9467 22.2933 39.32 27.2C39.7467 32.0533 40.2533 35.44 40.84 37.36L41.72 40.16C38.1467 42.9867 33.16 46.0533 26.76 49.36C26.8133 47.44 26.84 45.5467 26.84 43.68C26.84 41.8133 26.8133 40 26.76 38.24C24.6267 38.6133 22.5467 38.8 20.52 38.8C18.5467 38.8 16.92 38.7733 15.64 38.72C14.8933 40.8533 13.8533 44.1067 12.52 48.48C10.6 47.52 8.49333 46.0533 6.2 44.08C3.90667 42.0533 2.12 40.0533 0.84 38.08C2.49333 36.4267 4.01333 34.08 5.4 31.04C8.38667 24.6933 11.1067 17.1733 13.56 8.48C25.08 7.62667 33.5333 6.29333 38.92 4.48ZM25.08 16.96C23.0533 20 20.6 25.3067 17.72 32.88C18.84 32.9333 21.7733 32.96 26.52 32.96C26.2 27.4133 25.8 22.72 25.32 18.88L25.08 16.96ZM56.1794 47.36V49.92C50.3127 47.52 46.126 44.9333 43.6194 42.16C44.046 37.4667 44.7927 32.2667 45.8594 26.56C46.9794 20.8533 47.966 16.32 48.8194 12.96L50.0994 7.92C52.4994 6.48 55.086 5.30666 57.8594 4.4C60.6327 3.44 62.7927 2.85333 64.3394 2.64L66.7394 2.32C64.6594 6.8 62.8727 11.52 61.3794 16.48C59.886 21.3867 58.8194 25.7333 58.1794 29.52C56.846 37.4667 56.1794 43.4133 56.1794 47.36ZM74.695 47.36V49.92C68.8283 47.52 64.6417 44.9333 62.135 42.16C62.5617 37.4667 63.3083 32.2667 64.375 26.56C65.495 20.8533 66.4817 16.32 67.335 12.96L68.615 7.92C71.015 6.48 73.6017 5.30666 76.375 4.4C79.1483 3.44 81.3083 2.85333 82.855 2.64L85.255 2.32C83.175 6.8 81.3883 11.52 79.895 16.48C78.4017 21.3867 77.335 25.7333 76.695 29.52C75.3617 37.4667 74.695 43.4133 74.695 47.36ZM111.531 22.88C110.731 24.1067 110.091 25.8933 109.611 28.24C109.131 30.5867 108.891 32.48 108.891 33.92C108.891 35.36 108.917 36.5333 108.971 37.44C106.837 37.12 104.917 36.5067 103.211 35.6C101.557 34.64 100.411 33.76 99.7706 32.96L98.8906 31.76C95.904 35.2267 93.984 37.7867 93.1306 39.44C93.024 42.64 92.9706 45.1733 92.9706 47.04C91.0506 46.6133 89.0773 45.9467 87.0506 45.04C85.024 44.08 83.4506 43.2533 82.3306 42.56L80.7306 41.52C81.6373 33.7867 82.9706 26 84.7306 18.16L85.6106 14.08C87.7973 14.56 89.7706 15.1467 91.5306 15.84C93.344 16.5333 94.5973 17.0933 95.2906 17.52L96.2506 18.24C95.184 21.44 94.3306 26.1067 93.6906 32.24C94.9706 29.2533 97.664 23.6267 101.771 15.36L111.531 22.88ZM128.544 25.2C127.478 27.44 126.624 29.5733 125.984 31.6C125.344 33.5733 124.758 36.0533 124.224 39.04C123.744 41.9733 123.504 44.24 123.504 45.84C123.504 47.3867 123.504 48.2933 123.504 48.56C121.051 47.44 118.918 46.2933 117.104 45.12C115.291 43.9467 114.064 43.04 113.424 42.4L112.544 41.44C112.544 36.5867 112.838 32.08 113.424 27.92C114.011 23.76 114.598 20.8267 115.184 19.12L116.064 16.48C120.864 17.3333 125.158 18.56 128.944 20.16L130.864 20.96C130.384 21.5467 129.611 22.96 128.544 25.2ZM128.144 17.04C127.504 16.7733 126.678 16.3733 125.664 15.84C124.704 15.3067 123.211 14.1333 121.184 12.32C119.211 10.5067 117.851 8.58667 117.104 6.56C118.438 5.97333 119.691 5.17333 120.864 4.16C122.091 3.09333 122.971 2.21333 123.504 1.52L124.304 0.399996C127.558 0.933332 130.331 1.78667 132.624 2.96L133.824 3.6C133.718 4.29333 133.558 5.17333 133.344 6.24C133.184 7.30666 132.598 9.06666 131.584 11.52C130.624 13.92 129.478 15.76 128.144 17.04ZM130.094 46.96C131.694 47.8667 134.468 48.32 138.414 48.32C142.361 48.32 145.534 47.04 147.934 44.48C150.334 41.8667 151.881 38.72 152.574 35.04C151.241 37.12 149.614 38.9867 147.694 40.64C145.828 42.24 144.281 43.3333 143.054 43.92L141.134 44.8C138.094 44.2667 135.561 42.9067 133.534 40.72C131.401 38.48 130.334 36.56 130.334 34.96C130.334 33.3067 130.681 31.52 131.374 29.6C132.068 27.68 133.081 25.7333 134.414 23.76C135.801 21.7333 137.641 20.0267 139.934 18.64C142.228 17.2 144.708 16.48 147.374 16.48C149.774 16.48 151.748 17.2 153.294 18.64C154.628 19.92 155.614 21.3067 156.254 22.8C151.401 23.3867 147.774 25.2267 145.374 28.32C142.974 31.36 141.774 34.4 141.774 37.44C141.774 37.76 141.774 38.08 141.774 38.4C142.041 38.2933 142.814 37.7333 144.094 36.72C145.428 35.7067 146.548 34.7467 147.454 33.84C149.748 31.6 151.748 29.0133 153.454 26.08L156.494 12.8C159.054 13.12 161.241 13.7867 163.054 14.8C164.868 15.8133 166.041 16.7467 166.574 17.6L167.374 18.88C167.108 20.9067 166.601 22.8533 165.854 24.72C165.161 26.5867 164.494 27.9467 163.854 28.8L162.974 30.08C162.868 38.7733 160.601 45.6267 156.174 50.64C151.748 55.6533 145.534 58.16 137.534 58.16C136.628 57.7333 135.668 56.8267 134.654 55.44C132.681 52.8267 131.161 50 130.094 46.96ZM192.815 15.84C195.962 15.84 199.055 19.3867 202.095 26.48C199.535 29.8933 197.615 34.56 196.335 40.48C195.802 42.7733 195.508 45.0667 195.455 47.36H194.975C190.762 47.36 188.015 45.4667 186.735 41.68C186.255 40.2933 186.015 38.88 186.015 37.44C186.015 34.2933 186.762 30.4533 188.255 25.92C184.682 29.0133 181.268 33.9467 178.015 40.72C177.802 41.9467 177.588 43.8933 177.375 46.56C174.335 45.92 172.068 45.04 170.575 43.92C169.188 42.9067 168.362 42.08 168.095 41.44C168.202 36.5333 168.682 31.0133 169.535 24.88C170.442 18.7467 171.295 13.84 172.095 10.16C172.895 6.42667 173.348 4.53333 173.455 4.48C176.015 3.68 178.602 3.06666 181.215 2.64C183.882 2.16 185.882 1.89333 187.215 1.84H189.215C185.802 9.46666 182.922 18.0533 180.575 27.6C182.602 23.9733 184.682 21.12 186.815 19.04C189.002 16.9067 191.002 15.84 192.815 15.84ZM218.289 26.88C217.063 33.3867 216.449 39.3333 216.449 44.72C216.449 45.68 216.476 46.5867 216.529 47.44C214.183 46.6933 211.676 45.6 209.009 44.16C206.396 42.72 204.556 41.28 203.489 39.84C204.769 34.4 206.076 30.4 207.409 27.84L208.049 26.48C207.303 25.0933 205.969 23.7067 204.049 22.32L203.009 21.6C204.076 20.8 206.263 19.6533 209.569 18.16C210.476 15.3333 211.463 12.8 212.529 10.56C213.596 8.26666 214.423 6.69333 215.009 5.84L215.889 4.56L221.009 14.96L229.409 14.16L225.889 29.6L218.289 26.88ZM251.198 25.84C250.878 22.5333 250.718 19.4933 250.718 16.72V15.28C252.905 14 256.211 12.6667 260.638 11.28C260.638 22.2667 261.011 29.6267 261.758 33.36L262.158 35.36C265.198 29.0133 266.718 22.08 266.718 14.56C266.718 11.7333 266.505 8.82667 266.078 5.84L280.078 10.32C280.398 12.56 280.558 14.72 280.558 16.8C280.558 23.36 279.011 29.4133 275.918 34.96C271.758 42.2133 266.105 46.64 258.958 48.24C257.838 47.0667 256.665 45.1467 255.438 42.48C254.265 39.8133 253.491 37.44 253.118 35.36C251.145 38.2933 248.905 40.9067 246.398 43.2C243.891 45.4933 241.891 47.0667 240.398 47.92L238.158 49.12C235.971 46.4533 234.265 43.3067 233.038 39.68C231.811 36 231.091 32.7467 230.878 29.92C230.718 27.0933 230.638 24.9333 230.638 23.44C230.638 18.7467 230.851 15.28 231.278 13.04L231.758 10.4C232.451 10.0267 233.385 9.57333 234.558 9.04C235.731 8.45333 237.945 7.70667 241.198 6.8C244.451 5.89333 247.491 5.44 250.318 5.44C247.171 13.4933 245.598 21.1733 245.598 28.48C245.598 30.3467 245.705 32.1867 245.918 34C248.691 30.8 250.451 28.08 251.198 25.84ZM304.952 12.24C307.352 13.3067 309.272 15.0933 310.712 17.6C312.152 20.0533 312.872 23.0133 312.872 26.48C312.872 29.8933 311.965 32.96 310.152 35.68C308.392 38.4 306.285 40.48 303.832 41.92C301.432 43.36 299.219 44.48 297.192 45.28C295.219 46.0267 293.805 46.4 292.952 46.4C290.659 45.28 288.525 43.9733 286.552 42.48C284.632 40.9333 283.272 39.68 282.472 38.72L281.272 37.28C281.325 34.24 281.752 31.4133 282.552 28.8C283.405 26.1333 284.392 23.9733 285.512 22.32C287.912 18.96 290.019 16.72 291.832 15.6L293.032 14.8C295.325 15.44 297.592 16.1867 299.832 17.04L304.952 12.24ZM304.392 27.84L299.912 24.08C296.445 28.8267 294.525 33.76 294.152 38.88C294.365 38.8267 294.632 38.7733 294.952 38.72C295.325 38.6133 295.992 38.32 296.952 37.84C297.912 37.36 298.819 36.7733 299.672 36.08C300.525 35.3333 301.405 34.24 302.312 32.8C303.219 31.36 303.912 29.7067 304.392 27.84ZM332.961 43.28C334.774 36.6667 335.681 31.6 335.681 28.08C335.681 27.8133 335.681 27.5733 335.681 27.36L335.521 25.92C332.481 28.5333 329.467 32.64 326.481 38.24C326.214 40.16 325.947 42.8267 325.681 46.24C323.601 45.76 321.707 45.12 320.001 44.32C318.294 43.52 317.094 42.8533 316.401 42.32L315.361 41.44C315.681 33.8133 316.294 26.88 317.201 20.64L317.601 17.52L331.521 14.48C330.454 17.36 329.414 21.4133 328.401 26.64C330.321 23.28 332.321 20.64 334.401 18.72C336.481 16.8 338.374 15.84 340.081 15.84C343.227 15.84 346.321 19.3867 349.361 26.48C348.987 27.2267 348.507 28.2933 347.921 29.68C347.334 31.0133 346.534 33.6533 345.521 37.6C344.507 41.4933 343.947 45.2533 343.841 48.88C338.881 47.3333 335.254 45.4667 332.961 43.28Z" fill="white"/>
</svg>
